<svg width="48" height="20" viewBox="0 0 48 20" fill="none" xmlns="http://www.w3.org/2000/svg">
<path d="M48 11.9261C48 12.1438 47.8235 12.3203 47.6058 12.3203L40.6079 12.3203L40.6079 0.394356C40.6079 0.176619 40.7844 0.000109094 41.0021 0.000109113L47.6058 0.00010969C47.8235 0.000109709 48 0.17662 48 0.394356L48 11.9261Z" fill="#FF6F61"/>
<path d="M7.39062 12.3203L0.39275 12.3203C0.175013 12.3203 -0.00149684 12.1438 -0.00149682 11.9261L-0.00149582 0.394356C-0.0014958 0.176619 0.175014 0.000109094 0.392751 0.000109113L6.99638 0.00010969C7.21412 0.000109709 7.39063 0.17662 7.39063 0.394356L7.39062 12.3203Z" fill="#FF6F61"/>
<path fill-rule="evenodd" clip-rule="evenodd" d="M15.1486 17.2953C13.0045 18.8264 10.2639 19.8287 6.93961 19.904C6.71646 19.9091 6.53516 19.7343 6.53516 19.5194V12.417C8.35798 12.417 9.63725 12.0253 10.5745 11.356C11.6218 10.6081 12.5152 9.53325 13.5832 8.06122C13.732 7.856 13.8897 7.63449 14.0557 7.40124C14.9332 6.16821 16.044 4.60738 17.3264 3.39416C19.0376 1.77521 21.3484 0.449219 24.4949 0.449219H27.9533C28.1782 0.449219 28.3599 0.62641 28.3574 0.843007C28.3419 2.19525 28.332 3.06411 28.3154 4.51632C28.3153 4.51742 28.3152 4.51861 28.3151 4.51987C28.3133 4.54786 28.3097 4.61214 28.3085 4.70733C28.3062 4.89942 28.314 5.20621 28.3619 5.58741C28.4593 6.36244 28.7102 7.35178 29.2935 8.31244C30.2876 9.94961 32.9123 12.417 40.5855 12.417V19.5194C40.5855 19.7343 40.4015 19.9088 40.1783 19.9065C30.6761 19.8113 25.2957 16.3781 22.6644 12.0446C22.3646 11.5507 22.1084 11.0585 21.8896 10.5751C21.7619 10.2928 21.3624 10.2412 21.1781 10.4927C20.976 10.7685 20.7617 11.0675 20.5279 11.3935C20.3272 11.6735 20.1121 11.9734 19.8782 12.2958C18.758 13.8399 17.2691 15.7811 15.1486 17.2953Z" fill="#FF6F61"/>
</svg>
